<?xml version="1.0" encoding="utf-8"?>
<!-- Generator: Adobe Illustrator 23.0.6, SVG Export Plug-In . SVG Version: 6.00 Build 0)  -->
<svg version="1.1" id="Layer_1" xmlns="http://www.w3.org/2000/svg" xmlns:xlink="http://www.w3.org/1999/xlink" x="0px" y="0px"
	 viewBox="0 0 500 500" style="enable-background:new 0 0 500 500;" xml:space="preserve">
<style type="text/css">
	.st0{fill:url(#SVGID_1_);}
	.st1{fill:#FFFFFF;}
</style>
<linearGradient id="SVGID_1_" gradientUnits="userSpaceOnUse" x1="-506.984" y1="635.6197" x2="-496.712" y2="646.6617" gradientTransform="matrix(0 -42.2827 39.3387 0 -24971.7422 -20969.2148)">
	<stop  offset="0" style="stop-color:#FFDD55"/>
	<stop  offset="0.5" style="stop-color:#FF543E"/>
	<stop  offset="1" style="stop-color:#C837AB"/>
</linearGradient>
<path class="st0" d="M31.9,34.7C-7.3,75.4,0.7,118.6,0.7,249.9c0,109-19,218.3,80.5,244.1c31.1,8,306.6,8,337.6,0
	c41.5-10.7,75.2-44.3,79.8-103c0.6-8.2,0.6-273.8,0-282.2c-4.9-62.5-43.3-98.4-94-105.7c-11.6-1.7-13.9-2.2-73.5-2.3
	C119.9,0.9,73.6-8.5,31.9,34.7L31.9,34.7z"/>
<path class="st1" d="M250,61c-77.5,0-151-6.9-179.1,65.2C59.2,156,60.9,194.6,60.9,250c0,48.6-1.6,94.3,9.9,123.8
	c28,72.1,102.2,65.2,179.1,65.2c74.2,0,150.7,7.7,179.1-65.2c11.6-30.1,9.9-68.2,9.9-123.8c0-73.9,4.1-121.5-31.7-157.3
	C370.9,56.4,321.9,61,250,61L250,61z M233,95c161.6-0.3,182.1-18.2,170.8,231.3c-4,88.3-71.2,78.6-153.8,78.6
	c-150.6,0-154.9-4.3-154.9-155C95,97.5,107,95.1,233,95L233,95z M350.9,126.4c-12.5,0-22.7,10.2-22.7,22.7
	c0,12.5,10.2,22.7,22.7,22.7c12.5,0,22.7-10.2,22.7-22.7C373.5,136.6,363.4,126.4,350.9,126.4z M250,152.9
	c-53.6,0-97.1,43.5-97.1,97.1s43.5,97.1,97.1,97.1s97-43.5,97-97.1S303.6,152.9,250,152.9L250,152.9z M250,187
	c83.3,0,83.4,126,0,126C166.7,313,166.5,187,250,187z"/>
</svg>
