<?xml version="1.0" encoding="utf-8"?>
<!-- Generator: Adobe Illustrator 23.0.6, SVG Export Plug-In . SVG Version: 6.00 Build 0)  -->
<svg version="1.1" id="Layer_1" xmlns="http://www.w3.org/2000/svg" xmlns:xlink="http://www.w3.org/1999/xlink" x="0px" y="0px"
	 viewBox="0 0 512 512" style="enable-background:new 0 0 512 512;" xml:space="preserve">
<style type="text/css">
	.st0{fill:#FF0B53;}
	.st1{fill:#00F0E9;}
	.st2{fill:#FFFFFF;}
</style>
<path d="M32,34.8C-8.2,76.6,0,121,0,255.9c0,112-19.5,224.3,82.7,250.7c31.9,8.2,314.9,8.2,346.8,0c42.6-11,77.2-45.5,82-105.7
	c0.7-8.4,0.7-281.3,0-289.9c-5-64.1-44.5-101.1-96.6-108.6C403,0.6,400.6,0.1,339.4,0C122.4,0.1,74.8-9.6,32,34.8L32,34.8z"/>
<g>
	<path class="st0" d="M408.4,176.1c-42.8,0-77.5-34.7-77.5-77.5h-58.1v224.9c0,26.2-21.2,47.4-47.4,47.4
		c-26.2,0-47.4-21.2-47.4-47.4s21.2-47.4,47.4-47.4c4.9,0,10.5,0.7,14.9,2.1v-59.2c-4.9-0.7-9.8-1-14.9-1
		c-58.2,0-105.5,47.2-105.5,105.5S167.2,429,225.5,429c58.2,0,105.5-47.2,105.5-105.5v-119c21.1,17.2,48.1,27.6,77.5,27.6V176.1z"/>
	<path class="st1" d="M392,159.7c-42.8,0-77.5-34.7-77.5-77.5h-58.1v224.9c0,26.2-21.2,47.4-47.4,47.4c-26.2,0-47.4-21.2-47.4-47.4
		s21.2-47.4,47.4-47.4c4.9,0,10.5,0.7,14.9,2.1v-59.2c-4.9-0.7-9.8-1-14.9-1c-58.2,0-105.5,47.2-105.5,105.5S150.8,412.6,209,412.6
		s105.5-47.2,105.5-105.5V188c21.1,17.2,48.1,27.6,77.5,27.6V159.7z"/>
	<path class="st2" d="M392,174.3c-18.7-4.1-34.9-14.9-45.9-29.8c-14.9-11-25.7-27.2-29.8-45.9h-43.4v224.9
		c0,26.2-21.2,47.4-47.4,47.4c-17.3,0-32.4-9.3-40.7-23.1c-13.8-8.3-23.1-23.4-23.1-40.7c0-26.2,21.2-47.4,47.4-47.4
		c4.9,0,10.5,0.7,14.9,2.1v-43.8C166.4,218.9,120,265.8,120,323.5c0,24.9,8.7,47.8,23.1,65.9c18.1,14.5,41,23.1,65.9,23.1
		c58.2,0,105.5-47.2,105.5-105.5V188c21.1,17.2,48.1,27.6,77.5,27.6V174.3z"/>
</g>
</svg>
